<svg width="433" height="100" viewBox="0 0 433 100" fill="none" xmlns="http://www.w3.org/2000/svg">
<path d="M68.7153 29.2344C48.6328 29.2344 33.4902 38.8543 33.4902 51.6136V77.5891C33.4902 90.3439 48.6328 99.9683 68.7153 99.9683C88.7979 99.9683 103.94 90.3484 103.94 77.5891V51.6136C103.94 38.8543 88.7979 29.2344 68.7153 29.2344ZM91.8485 77.5846C91.8485 81.7049 82.8381 87.6927 68.7153 87.6927C54.5926 87.6927 45.5822 81.7049 45.5822 77.5846V51.6091C45.5822 47.4889 54.5926 41.5011 68.7153 41.5011C82.8381 41.5011 91.8485 47.4889 91.8485 51.6091V77.5846Z" fill="white"/>
<path d="M232.968 29.2344C212.886 29.2344 197.743 38.8543 197.743 51.6136V77.5891C197.743 90.3439 212.886 99.9683 232.968 99.9683C253.051 99.9683 268.193 90.3484 268.193 77.5891V51.6136C268.193 38.8543 253.051 29.2344 232.968 29.2344ZM256.101 77.5846C256.101 81.7049 247.091 87.6927 232.968 87.6927C218.846 87.6927 209.835 81.7049 209.835 77.5846V51.6091C209.835 47.4889 218.846 41.5011 232.968 41.5011C247.091 41.5011 256.101 47.4889 256.101 51.6091V77.5846Z" fill="white"/>
<path d="M127.815 99.9638V51.6136C127.815 47.4933 136.825 41.5056 150.948 41.5056C165.07 41.5056 174.081 47.4933 174.081 51.6136V99.9638H186.173V51.6136C186.173 38.8543 171.03 29.2344 150.948 29.2344C130.865 29.2344 115.723 38.8543 115.723 51.6136V99.9638H127.815Z" fill="white"/>
<path d="M314.81 99.9997C297.91 99.9997 279.722 77.8533 279.722 29.2344H291.165C291.165 70.0383 304.992 88.3913 314.814 88.3913C322.801 88.3913 338.464 70.5264 338.464 29.2344H349.907C349.907 80.7868 328.385 99.9997 314.819 99.9997H314.81Z" fill="white"/>
<path d="M393.231 52.4349L397.205 52.2871C395.854 52.2871 394.529 52.3409 393.231 52.4349Z" fill="white"/>
<path d="M419.734 34.0642C413.451 30.7814 405.214 28.9766 396.548 28.9766C387.881 28.9766 380.063 30.7501 374.103 33.9656C366.395 38.1352 362.152 44.6335 362.152 52.2828H373.595C373.595 51.0692 373.595 47.3968 379.485 44.2125C383.758 41.9016 389.978 40.5804 396.552 40.5804C408.224 40.5804 420.806 45.0545 420.806 52.2828H397.205L393.232 52.4306H393.201C375.498 53.7518 362.152 63.6897 362.152 76.14C362.152 89.5218 377.547 99.9971 397.205 99.9971C416.864 99.9971 432.249 89.5174 432.249 76.14V52.2828C432.249 44.7365 427.808 38.2695 419.738 34.0597L419.734 34.0642ZM420.806 76.1445C420.806 81.8635 410.719 88.2589 397.205 88.2589C383.692 88.2589 373.595 81.8635 373.595 76.1445C373.595 71.0076 381.749 65.3288 393.201 64.2226C394.49 64.0972 395.832 64.0345 397.205 64.0345C410.622 64.0345 420.67 70.3448 420.798 76.0325C420.806 76.0728 420.806 76.1042 420.806 76.1489V76.1445Z" fill="white"/>
<path d="M23.6585 0C23.6585 13.2565 13.0676 24.0005 0 24.0005C13.0676 24.0005 23.6585 34.7445 23.6585 48.0009C23.6585 34.7445 34.2495 24.0005 47.3171 24.0005C34.2495 24.0005 23.6585 13.2565 23.6585 0Z" fill="white"/>
</svg>
